STARTFONT 2.1
FONT -FontForge-Pixel Arial 11-Book-R-Normal--11-110-72-72-P-59-ISO10646-1
SIZE 11 75 75
FONTBOUNDINGBOX 11 11 -1 -2
COMMENT "Generated by fontforge, http://fontforge.sourceforge.net"
COMMENT "(c)2001 | Max Remix"
STARTPROPERTIES 39
FOUNDRY "FontForge"
FAMILY_NAME "Pixel Arial 11"
WEIGHT_NAME "Book"
SLANT "R"
SETWIDTH_NAME "Normal"
ADD_STYLE_NAME ""
PIXEL_SIZE 11
POINT_SIZE 110
RESOLUTION_X 72
RESOLUTION_Y 72
SPACING "P"
AVERAGE_WIDTH 56
CHARSET_REGISTRY "ISO10646"
CHARSET_ENCODING "1"
FONTNAME_REGISTRY ""
CHARSET_COLLECTIONS "ISO10646-1"
FONT_NAME "PixelArial11"
FACE_NAME "Pixel Arial 11"
COPYRIGHT "(c)2001 | Max Remix"
FONT_VERSION "Macromedia Fontographer 4.1.4 8/9/01"
FONT_ASCENT 8
FONT_DESCENT 3
UNDERLINE_POSITION -1
UNDERLINE_THICKNESS 1
X_HEIGHT 5
CAP_HEIGHT 7
RAW_ASCENT 800
RAW_DESCENT 200
NORM_SPACE 3
RELATIVE_WEIGHT 40
RELATIVE_SETWIDTH 50
SUPERSCRIPT_X 0
SUPERSCRIPT_Y 3
SUPERSCRIPT_SIZE 5
SUBSCRIPT_X 0
SUBSCRIPT_Y 1
SUBSCRIPT_SIZE 5
AVG_LOWERCASE_WIDTH 54
AVG_UPPERCASE_WIDTH 69
ENDPROPERTIES
CHARS 95
STARTCHAR space
ENCODING 32
SWIDTH 375 0
DWIDTH 3 0
BBX 1 1 0 0
BITMAP
00
ENDCHAR
STARTCHAR exclam
ENCODING 33
SWIDTH 363 0
DWIDTH 4 0
BBX 3 8 0 0
BITMAP
20
20
40
40
40
40
00
80
ENDCHAR
STARTCHAR quotedbl
ENCODING 34
SWIDTH 500 0
DWIDTH 4 0
BBX 4 3 0 5
BITMAP
50
A0
A0
ENDCHAR
STARTCHAR numbersign
ENCODING 35
SWIDTH 750 0
DWIDTH 6 0
BBX 5 8 0 0
BITMAP
28
28
F8
50
50
F8
A0
A0
ENDCHAR
STARTCHAR dollar
ENCODING 36
SWIDTH 636 0
DWIDTH 7 0
BBX 6 10 0 -1
BITMAP
08
3C
54
50
30
18
14
94
78
20
ENDCHAR
STARTCHAR percent
ENCODING 37
SWIDTH 1250 0
DWIDTH 10 0
BBX 9 8 0 0
BITMAP
7100
9200
9400
E800
0B80
1480
2480
4700
ENDCHAR
STARTCHAR ampersand
ENCODING 38
SWIDTH 875 0
DWIDTH 7 0
BBX 6 8 0 0
BITMAP
18
24
24
28
70
94
88
74
ENDCHAR
STARTCHAR quotesingle
ENCODING 39
SWIDTH 250 0
DWIDTH 2 0
BBX 2 3 0 5
BITMAP
40
80
80
ENDCHAR
STARTCHAR parenleft
ENCODING 40
SWIDTH 454 0
DWIDTH 5 0
BBX 4 10 0 -2
BITMAP
10
20
40
40
80
80
80
80
80
40
ENDCHAR
STARTCHAR parenright
ENCODING 41
SWIDTH 454 0
DWIDTH 5 0
BBX 4 10 0 -2
BITMAP
20
10
10
10
10
10
20
20
40
80
ENDCHAR
STARTCHAR asterisk
ENCODING 42
SWIDTH 500 0
DWIDTH 4 0
BBX 3 4 0 4
BITMAP
40
E0
40
A0
ENDCHAR
STARTCHAR plus
ENCODING 43
SWIDTH 750 0
DWIDTH 6 0
BBX 5 5 0 1
BITMAP
20
20
F8
20
20
ENDCHAR
STARTCHAR comma
ENCODING 44
SWIDTH 272 0
DWIDTH 3 0
BBX 2 3 0 -2
BITMAP
40
40
80
ENDCHAR
STARTCHAR hyphen
ENCODING 45
SWIDTH 500 0
DWIDTH 4 0
BBX 3 1 0 2
BITMAP
E0
ENDCHAR
STARTCHAR period
ENCODING 46
SWIDTH 250 0
DWIDTH 2 0
BBX 1 1 0 0
BITMAP
80
ENDCHAR
STARTCHAR slash
ENCODING 47
SWIDTH 545 0
DWIDTH 6 0
BBX 5 8 0 0
BITMAP
08
10
10
20
20
40
40
80
ENDCHAR
STARTCHAR zero
ENCODING 48
SWIDTH 636 0
DWIDTH 7 0
BBX 6 8 0 0
BITMAP
38
44
44
84
84
88
88
70
ENDCHAR
STARTCHAR one
ENCODING 49
SWIDTH 363 0
DWIDTH 4 0
BBX 3 8 0 0
BITMAP
20
60
A0
20
20
40
40
40
ENDCHAR
STARTCHAR two
ENCODING 50
SWIDTH 751 0
DWIDTH 6 0
BBX 5 8 0 0
BITMAP
30
48
08
10
20
40
80
F0
ENDCHAR
STARTCHAR three
ENCODING 51
SWIDTH 750 0
DWIDTH 6 0
BBX 5 8 0 0
BITMAP
30
48
08
30
08
08
88
70
ENDCHAR
STARTCHAR four
ENCODING 52
SWIDTH 750 0
DWIDTH 6 0
BBX 5 8 0 0
BITMAP
08
18
30
50
90
F8
20
20
ENDCHAR
STARTCHAR five
ENCODING 53
SWIDTH 750 0
DWIDTH 6 0
BBX 5 8 0 0
BITMAP
78
40
B0
C8
08
08
90
60
ENDCHAR
STARTCHAR six
ENCODING 54
SWIDTH 750 0
DWIDTH 6 0
BBX 5 8 0 0
BITMAP
30
48
80
B0
C8
88
90
60
ENDCHAR
STARTCHAR seven
ENCODING 55
SWIDTH 454 0
DWIDTH 5 0
BBX 4 8 0 0
BITMAP
F0
10
20
20
40
40
80
80
ENDCHAR
STARTCHAR eight
ENCODING 56
SWIDTH 750 0
DWIDTH 6 0
BBX 5 8 0 0
BITMAP
30
48
48
30
48
88
88
70
ENDCHAR
STARTCHAR nine
ENCODING 57
SWIDTH 750 0
DWIDTH 6 0
BBX 5 8 0 0
BITMAP
30
48
88
98
68
08
90
60
ENDCHAR
STARTCHAR colon
ENCODING 58
SWIDTH 272 0
DWIDTH 3 0
BBX 2 6 0 0
BITMAP
40
00
00
00
00
80
ENDCHAR
STARTCHAR semicolon
ENCODING 59
SWIDTH 363 0
DWIDTH 4 0
BBX 3 8 0 -2
BITMAP
20
00
00
00
00
40
40
80
ENDCHAR
STARTCHAR less
ENCODING 60
SWIDTH 750 0
DWIDTH 6 0
BBX 5 5 0 1
BITMAP
08
70
80
70
08
ENDCHAR
STARTCHAR equal
ENCODING 61
SWIDTH 750 0
DWIDTH 6 0
BBX 5 3 0 2
BITMAP
F8
00
F8
ENDCHAR
STARTCHAR greater
ENCODING 62
SWIDTH 750 0
DWIDTH 6 0
BBX 5 5 0 1
BITMAP
80
70
08
70
80
ENDCHAR
STARTCHAR question
ENCODING 63
SWIDTH 750 0
DWIDTH 6 0
BBX 5 8 0 0
BITMAP
70
88
08
10
20
40
00
40
ENDCHAR
STARTCHAR at
ENCODING 64
SWIDTH 1375 0
DWIDTH 11 0
BBX 10 10 0 -2
BITMAP
1F00
2080
4D40
9340
A240
A240
A680
9B00
4040
3F80
ENDCHAR
STARTCHAR A
ENCODING 65
SWIDTH 636 0
DWIDTH 7 0
BBX 6 8 0 0
BITMAP
08
14
14
24
24
7C
44
84
ENDCHAR
STARTCHAR B
ENCODING 66
SWIDTH 875 0
DWIDTH 7 0
BBX 6 8 0 0
BITMAP
3C
24
44
78
44
44
84
F8
ENDCHAR
STARTCHAR C
ENCODING 67
SWIDTH 875 0
DWIDTH 7 0
BBX 6 8 0 0
BITMAP
38
44
80
80
80
84
88
70
ENDCHAR
STARTCHAR D
ENCODING 68
SWIDTH 727 0
DWIDTH 8 0
BBX 7 8 0 0
BITMAP
3C
22
42
42
42
42
84
F8
ENDCHAR
STARTCHAR E
ENCODING 69
SWIDTH 636 0
DWIDTH 7 0
BBX 7 8 0 0
BITMAP
3E
20
40
7C
40
40
80
F8
ENDCHAR
STARTCHAR F
ENCODING 70
SWIDTH 636 0
DWIDTH 7 0
BBX 7 8 0 0
BITMAP
3E
20
40
7C
40
40
80
80
ENDCHAR
STARTCHAR G
ENCODING 71
SWIDTH 1000 0
DWIDTH 8 0
BBX 7 8 0 0
BITMAP
3C
42
80
80
9E
84
84
78
ENDCHAR
STARTCHAR H
ENCODING 72
SWIDTH 727 0
DWIDTH 8 0
BBX 8 8 0 0
BITMAP
21
21
42
7E
42
42
84
84
ENDCHAR
STARTCHAR I
ENCODING 73
SWIDTH 272 0
DWIDTH 3 0
BBX 3 8 0 0
BITMAP
20
20
40
40
40
40
80
80
ENDCHAR
STARTCHAR J
ENCODING 74
SWIDTH 625 0
DWIDTH 5 0
BBX 5 8 0 0
BITMAP
08
08
08
10
10
90
90
60
ENDCHAR
STARTCHAR K
ENCODING 75
SWIDTH 636 0
DWIDTH 7 0
BBX 6 8 0 0
BITMAP
24
28
50
60
50
50
88
88
ENDCHAR
STARTCHAR L
ENCODING 76
SWIDTH 750 0
DWIDTH 6 0
BBX 5 8 0 0
BITMAP
20
20
40
40
40
40
80
F8
ENDCHAR
STARTCHAR M
ENCODING 77
SWIDTH 818 0
DWIDTH 9 0
BBX 9 8 0 0
BITMAP
3180
5300
5300
5500
5500
5900
9A00
9200
ENDCHAR
STARTCHAR N
ENCODING 78
SWIDTH 727 0
DWIDTH 8 0
BBX 8 8 0 0
BITMAP
21
31
52
52
4A
4A
8C
84
ENDCHAR
STARTCHAR O
ENCODING 79
SWIDTH 1000 0
DWIDTH 8 0
BBX 7 8 0 0
BITMAP
3C
42
82
82
82
82
84
78
ENDCHAR
STARTCHAR P
ENCODING 80
SWIDTH 727 0
DWIDTH 8 0
BBX 7 8 0 0
BITMAP
3C
22
42
42
7C
40
80
80
ENDCHAR
STARTCHAR Q
ENCODING 81
SWIDTH 1000 0
DWIDTH 8 0
BBX 7 9 0 -1
BITMAP
3C
42
42
82
82
84
9C
78
04
ENDCHAR
STARTCHAR R
ENCODING 82
SWIDTH 727 0
DWIDTH 8 0
BBX 7 8 0 0
BITMAP
3E
22
42
7C
48
48
84
84
ENDCHAR
STARTCHAR S
ENCODING 83
SWIDTH 727 0
DWIDTH 8 0
BBX 7 8 0 0
BITMAP
3C
42
40
30
08
84
84
78
ENDCHAR
STARTCHAR T
ENCODING 84
SWIDTH 636 0
DWIDTH 7 0
BBX 7 8 0 0
BITMAP
FE
10
10
20
20
20
40
40
ENDCHAR
STARTCHAR U
ENCODING 85
SWIDTH 727 0
DWIDTH 8 0
BBX 7 8 0 0
BITMAP
42
42
44
84
84
84
88
70
ENDCHAR
STARTCHAR V
ENCODING 86
SWIDTH 636 0
DWIDTH 7 0
BBX 6 8 0 0
BITMAP
84
84
88
90
90
A0
A0
40
ENDCHAR
STARTCHAR W
ENCODING 87
SWIDTH 1000 0
DWIDTH 11 0
BBX 10 8 0 0
BITMAP
8440
8C40
9480
9480
A500
A500
C600
8400
ENDCHAR
STARTCHAR X
ENCODING 88
SWIDTH 727 0
DWIDTH 8 0
BBX 8 8 0 0
BITMAP
41
22
14
18
18
28
44
84
ENDCHAR
STARTCHAR Y
ENCODING 89
SWIDTH 545 0
DWIDTH 6 0
BBX 6 8 0 0
BITMAP
84
88
50
50
20
20
40
40
ENDCHAR
STARTCHAR Z
ENCODING 90
SWIDTH 875 0
DWIDTH 7 0
BBX 6 8 0 0
BITMAP
7C
04
08
10
20
40
80
FC
ENDCHAR
STARTCHAR bracketleft
ENCODING 91
SWIDTH 454 0
DWIDTH 5 0
BBX 4 10 0 -2
BITMAP
30
20
20
40
40
40
40
80
80
C0
ENDCHAR
STARTCHAR backslash
ENCODING 92
SWIDTH 500 0
DWIDTH 4 0
BBX 3 9 0 -1
BITMAP
80
80
40
40
40
40
20
20
20
ENDCHAR
STARTCHAR bracketright
ENCODING 93
SWIDTH 375 0
DWIDTH 3 0
BBX 4 10 0 -2
BITMAP
30
10
10
20
20
20
20
40
40
C0
ENDCHAR
STARTCHAR asciicircum
ENCODING 94
SWIDTH 750 0
DWIDTH 6 0
BBX 5 4 0 4
BITMAP
20
50
50
88
ENDCHAR
STARTCHAR underscore
ENCODING 95
SWIDTH 875 0
DWIDTH 7 0
BBX 6 1 0 -2
BITMAP
FC
ENDCHAR
STARTCHAR grave
ENCODING 96
SWIDTH 500 0
DWIDTH 4 0
BBX 2 2 0 6
BITMAP
80
40
ENDCHAR
STARTCHAR a
ENCODING 97
SWIDTH 750 0
DWIDTH 7 0
BBX 6 6 0 0
BITMAP
38
04
3C
48
98
68
ENDCHAR
STARTCHAR b
ENCODING 98
SWIDTH 750 0
DWIDTH 6 0
BBX 6 8 0 0
BITMAP
20
20
58
64
44
44
C8
B0
ENDCHAR
STARTCHAR c
ENCODING 99
SWIDTH 750 0
DWIDTH 6 0
BBX 5 6 0 0
BITMAP
30
48
80
80
90
60
ENDCHAR
STARTCHAR d
ENCODING 100
SWIDTH 750 0
DWIDTH 6 0
BBX 6 8 0 0
BITMAP
04
04
28
58
88
88
B0
50
ENDCHAR
STARTCHAR e
ENCODING 101
SWIDTH 750 0
DWIDTH 6 0
BBX 5 6 0 0
BITMAP
30
48
F8
80
90
60
ENDCHAR
STARTCHAR f
ENCODING 102
SWIDTH 500 0
DWIDTH 4 0
BBX 4 8 0 0
BITMAP
30
40
E0
40
80
80
80
80
ENDCHAR
STARTCHAR g
ENCODING 103
SWIDTH 750 0
DWIDTH 6 0
BBX 6 8 -1 -2
BITMAP
34
2C
44
44
48
38
88
70
ENDCHAR
STARTCHAR h
ENCODING 104
SWIDTH 750 0
DWIDTH 6 0
BBX 5 8 0 0
BITMAP
20
20
50
68
48
48
90
90
ENDCHAR
STARTCHAR i
ENCODING 105
SWIDTH 272 0
DWIDTH 3 0
BBX 3 8 0 0
BITMAP
20
00
40
40
40
40
80
80
ENDCHAR
STARTCHAR j
ENCODING 106
SWIDTH 363 0
DWIDTH 4 0
BBX 5 10 -1 -2
BITMAP
08
00
10
10
10
10
20
20
20
C0
ENDCHAR
STARTCHAR k
ENCODING 107
SWIDTH 545 0
DWIDTH 6 0
BBX 5 8 0 0
BITMAP
20
20
48
50
60
50
90
90
ENDCHAR
STARTCHAR l
ENCODING 108
SWIDTH 363 0
DWIDTH 3 0
BBX 3 8 0 0
BITMAP
20
20
40
40
40
40
80
80
ENDCHAR
STARTCHAR m
ENCODING 109
SWIDTH 818 0
DWIDTH 9 0
BBX 8 6 0 0
BITMAP
52
6D
49
49
92
92
ENDCHAR
STARTCHAR n
ENCODING 110
SWIDTH 750 0
DWIDTH 6 0
BBX 5 6 0 0
BITMAP
50
68
48
48
90
90
ENDCHAR
STARTCHAR o
ENCODING 111
SWIDTH 750 0
DWIDTH 6 0
BBX 5 6 0 0
BITMAP
70
48
88
88
90
70
ENDCHAR
STARTCHAR p
ENCODING 112
SWIDTH 636 0
DWIDTH 7 0
BBX 6 8 0 -2
BITMAP
28
34
44
44
68
50
80
80
ENDCHAR
STARTCHAR q
ENCODING 113
SWIDTH 636 0
DWIDTH 7 0
BBX 6 8 0 -2
BITMAP
74
4C
88
88
98
68
10
10
ENDCHAR
STARTCHAR r
ENCODING 114
SWIDTH 454 0
DWIDTH 4 0
BBX 4 6 0 0
BITMAP
50
60
40
80
80
80
ENDCHAR
STARTCHAR s
ENCODING 115
SWIDTH 750 0
DWIDTH 6 0
BBX 5 6 0 0
BITMAP
30
48
60
18
88
70
ENDCHAR
STARTCHAR t
ENCODING 116
SWIDTH 363 0
DWIDTH 4 0
BBX 3 8 0 0
BITMAP
40
40
E0
40
80
80
80
C0
ENDCHAR
STARTCHAR u
ENCODING 117
SWIDTH 750 0
DWIDTH 6 0
BBX 5 6 0 0
BITMAP
48
48
48
88
B0
50
ENDCHAR
STARTCHAR v
ENCODING 118
SWIDTH 750 0
DWIDTH 6 0
BBX 5 6 0 0
BITMAP
88
90
90
A0
60
40
ENDCHAR
STARTCHAR w
ENCODING 119
SWIDTH 818 0
DWIDTH 9 0
BBX 8 6 0 0
BITMAP
89
99
AA
AA
CC
88
ENDCHAR
STARTCHAR x
ENCODING 120
SWIDTH 636 0
DWIDTH 7 0
BBX 6 6 0 0
BITMAP
44
28
10
30
48
84
ENDCHAR
STARTCHAR y
ENCODING 121
SWIDTH 545 0
DWIDTH 6 0
BBX 6 8 -1 -2
BITMAP
44
48
48
50
30
20
20
C0
ENDCHAR
STARTCHAR z
ENCODING 122
SWIDTH 750 0
DWIDTH 6 0
BBX 5 6 0 0
BITMAP
78
10
20
20
40
F0
ENDCHAR
STARTCHAR braceleft
ENCODING 123
SWIDTH 454 0
DWIDTH 5 0
BBX 4 10 0 -2
BITMAP
10
20
40
40
80
40
40
40
40
20
ENDCHAR
STARTCHAR bar
ENCODING 124
SWIDTH 250 0
DWIDTH 2 0
BBX 1 10 0 -2
BITMAP
80
80
80
80
80
80
80
80
80
80
ENDCHAR
STARTCHAR braceright
ENCODING 125
SWIDTH 454 0
DWIDTH 5 0
BBX 4 10 0 -2
BITMAP
40
20
20
20
10
20
20
20
40
80
ENDCHAR
STARTCHAR asciitilde
ENCODING 126
SWIDTH 750 0
DWIDTH 6 0
BBX 5 2 0 3
BITMAP
E8
B0
ENDCHAR
ENDFONT
